# xmcd
#
# Track frame offsets: 
#        150
#        11268
#        24623
#        33424
#        45009
#        54982
#        66530
#        76108
#        88498
#        97652
#        106828
#        117178
#
# Disc length: 1711 seconds
#
# Revision: 0
# Processed by: cddbd v1.5.2PL0 Copyright (c) Steve Scherf et al.
# Submitted via: ExactAudioCopyFreeDBPlugin 1.0
#
DISCID=8306ad0c
DTITLE=Norma Jean - Pretty Miss Norma Jean
DYEAR=2013
DGENRE=Country
TTITLE0=He's Gone, Gone, Gone
TTITLE1=Still
TTITLE2=Love's Gonna Live Here
TTITLE3=I'm No Longer In Your Heart
TTITLE4=Go Cat Go
TTITLE5=He Thinks I Still Care
TTITLE6=You Don't Hear
TTITLE7=Happy You, Lonely Me
TTITLE8=I Wouldn't Buy A Used Car From Him
TTITLE9=You Have To Be Out Of Your Mind
TTITLE10=I Cried All The Way To The Bank
TTITLE11=Together Again
EXTD=
EXTT0=
EXTT1=
EXTT2=
EXTT3=
EXTT4=
EXTT5=
EXTT6=
EXTT7=
EXTT8=
EXTT9=
EXTT10=
EXTT11=
PLAYORDER=
